PathFileType   4   (X/Y/Z)
DataRate  CameraRate  NumFrames  NumMarkers  Units  OrigDataRate  OrigDataStartFrame  OrigNumFrames  
  120.0      120.0        9         37         mm      120.0          61        160
Frame#      Time                    midhip                           hip_r                           hip_l                          knee_r                          knee_l                         ankle_r                         ankle_l                         midasis                          asis_r                          asis_l                          psis_r                          psis_l                    epicondLat_r                    epicondLat_l                    epicondMed_r                    epicondMed_l                  malleolusLat_r                  malleolusLat_l                 malleolusMedv_r                 malleolusMedv_l                            neck                   subclavicle_r                   subclavicle_l                    sternalnotch                  xyphoidprocess                     thighwand_r                     thighwand_l                     upperleg1_r                     upperleg1_l                     upperleg2_r                     upperleg2_l                     shankwand_r                     shankwand_l                     lowerleg1_r                     lowerleg1_l                           toe_r                           toe_l            
              X1          Y1          Z1          X2          Y2          Z2          X3          Y3          Z3          X4          Y4          Z4          X5          Y5          Z5          X6          Y6          Z6          X7          Y7          Z7          X8          Y8          Z8          X9          Y9          Z9          X10          Y10          Z10          X11          Y11          Z11          X12          Y12          Z12          X13          Y13          Z13          X14          Y14          Z14          X15          Y15          Z15          X16          Y16          Z16          X17          Y17          Z17          X18          Y18          Z18          X19          Y19          Z19          X20          Y20          Z20          X21          Y21          Z21          X22          Y22          Z22          X23          Y23          Z23          X24          Y24          Z24          X25          Y25          Z25          X26          Y26          Z26          X27          Y27          Z27          X28          Y28          Z28          X29          Y29          Z29          X30          Y30          Z30          X31          Y31          Z31          X32          Y32          Z32          X33          Y33          Z33          X34          Y34          Z34          X35          Y35          Z35          X36          Y36          Z36          X37          Y37          Z37          

	61	0.60000	587.256	749.064	-231.785	576.164	743.688	-175.696	598.348	754.439	-287.874	501.364	397.796	-136.497	675.220	412.470	-274.777	238.129	172.113	-150.490	726.429	65.183	-262.726	621.132	820.943	-218.709	614.852	816.710	-107.977	627.412	825.176	-329.440	444.638	850.014	-199.397	446.434	849.580	-252.330	510.233	396.322	-78.066	696.909	414.270	-333.147	534.202	386.662	-199.084	684.288	417.528	-210.712	229.375	180.625	-115.033	721.228	63.251	-298.802	238.383	166.460	-183.560	720.557	65.686	-229.505	505.957	1249.323	-225.948	611.580	1171.775	-177.234	613.322	1174.350	-283.824	609.655	1173.032	-233.655	612.318	1070.998	-238.593	660.064	526.041	-90.029	749.607	584.959	-348.537	602.956	568.366	-70.343	710.531	623.620	-289.741	587.028	510.901	-73.851	719.570	567.458	-277.576	398.141	155.163	-99.194	713.956	162.836	-391.573	340.952	203.913	-128.686	711.634	156.370	-311.739	251.227	85.666	-139.392	817.762	48.144	-263.495
	62	0.60833	598.321	751.331	-232.826	587.431	745.835	-176.709	609.211	756.828	-288.943	525.370	396.389	-137.144	676.756	414.155	-275.925	259.008	176.167	-150.609	726.827	65.132	-262.858	632.513	823.118	-219.710	626.663	818.628	-108.924	638.364	827.609	-330.495	456.229	852.415	-198.871	457.898	851.995	-251.768	532.672	396.512	-78.558	701.673	414.479	-334.149	558.598	387.706	-201.732	689.466	418.773	-213.329	250.489	184.630	-115.084	721.414	63.175	-298.901	257.590	168.974	-183.361	721.131	66.265	-229.646	517.750	1251.828	-227.032	623.476	1173.882	-178.271	624.821	1176.581	-284.664	621.341	1175.212	-234.583	623.748	1073.178	-239.658	678.470	529.898	-91.085	757.100	584.020	-351.305	619.340	570.451	-70.685	721.005	624.026	-292.839	606.008	512.679	-74.906	728.421	567.410	-280.832	418.502	156.890	-100.057	715.169	162.552	-391.905	360.366	207.306	-130.902	713.176	156.715	-312.467	271.224	89.784	-139.032	817.853	47.693	-263.621
	63	0.61667	609.167	753.652	-233.743	598.443	748.106	-177.599	619.892	759.198	-289.888	548.733	395.596	-137.941	679.584	415.350	-276.743	280.563	179.633	-150.948	727.168	65.109	-262.980	643.766	825.320	-220.632	638.292	820.681	-109.809	649.241	829.958	-331.455	467.611	855.021	-198.343	469.283	854.501	-251.274	555.254	397.142	-79.192	705.971	414.705	-334.904	581.720	388.457	-202.607	695.162	419.372	-215.581	272.333	187.889	-115.306	721.471	63.148	-298.979	278.812	172.051	-183.617	721.546	66.745	-229.759	529.759	1254.136	-227.808	635.308	1176.123	-179.525	636.202	1178.890	-285.469	632.935	1177.495	-235.600	635.128	1075.461	-240.763	696.793	534.182	-92.590	764.117	582.880	-353.759	635.928	572.607	-71.522	729.952	624.261	-295.261	625.106	515.461	-75.730	736.351	567.043	-283.382	440.002	158.621	-101.572	715.946	162.422	-392.127	382.427	209.519	-132.059	714.284	156.926	-313.074	293.222	93.534	-138.734	817.855	47.397	-263.701
	64	0.62500	619.955	756.018	-234.518	609.376	750.485	-178.345	630.534	761.550	-290.691	570.349	396.843	-138.808	682.422	416.182	-277.303	302.786	182.309	-151.433	727.476	65.097	-263.090	654.931	827.547	-221.483	649.788	822.882	-110.650	660.074	832.211	-332.316	478.810	857.756	-197.872	480.598	857.047	-250.880	577.871	398.243	-79.932	709.927	414.967	-335.406	603.024	391.337	-205.363	700.280	420.238	-216.031	294.863	190.247	-115.650	721.432	63.153	-299.034	300.463	174.778	-184.084	721.830	67.002	-229.840	541.452	1256.772	-228.056	646.559	1178.371	-180.098	647.549	1181.057	-286.223	644.236	1179.712	-236.266	645.970	1077.665	-241.349	715.024	538.871	-94.528	770.785	581.656	-355.698	653.519	575.189	-72.738	738.174	624.173	-296.786	644.164	518.292	-77.436	743.565	566.830	-284.815	462.568	160.311	-103.499	716.356	162.403	-392.243	404.435	211.753	-133.278	714.982	157.200	-313.320	317.028	96.674	-138.566	817.797	47.211	-263.742
	65	0.63333	630.749	758.412	-235.153	620.311	752.960	-178.946	641.187	763.865	-291.360	592.403	397.966	-139.728	684.946	417.038	-277.591	325.699	184.017	-151.995	727.766	65.089	-263.188	666.037	829.797	-222.265	661.191	825.234	-111.458	670.883	834.361	-333.072	489.847	860.555	-197.485	491.843	859.599	-250.621	600.422	399.802	-80.760	713.612	415.255	-335.694	624.567	393.642	-207.052	704.120	421.489	-215.372	318.067	191.578	-116.067	721.334	63.183	-299.066	322.270	176.194	-184.511	721.975	66.913	-229.875	552.859	1259.531	-228.796	657.596	1180.966	-180.240	658.750	1183.053	-286.483	655.360	1182.001	-236.471	656.690	1079.921	-240.978	733.145	543.909	-96.838	777.206	580.425	-357.024	670.913	578.618	-74.348	745.914	624.002	-297.672	663.170	521.318	-79.143	750.105	566.693	-285.418	486.104	161.900	-105.610	716.479	162.450	-392.261	426.059	213.866	-134.999	715.307	157.438	-313.100	342.437	99.041	-138.599	817.698	47.095	-263.733
	66	0.64167	641.618	760.782	-235.648	631.307	755.469	-179.404	651.928	766.095	-291.892	615.056	398.926	-140.728	688.341	417.490	-277.652	349.330	184.641	-152.582	728.040	65.087	-263.267	677.100	832.058	-222.976	672.528	827.723	-112.236	681.672	836.394	-333.716	500.759	863.357	-197.198	503.010	862.132	-250.511	622.812	401.778	-81.669	717.052	415.544	-335.830	646.589	395.447	-207.992	708.006	422.192	-214.504	341.952	191.806	-116.520	721.206	63.233	-299.074	346.073	177.959	-185.338	722.171	66.573	-229.862	564.384	1262.054	-229.848	669.108	1183.675	-180.719	670.025	1185.206	-286.552	666.746	1184.419	-236.739	667.975	1082.316	-240.721	751.121	549.218	-99.423	783.451	579.225	-357.749	688.059	582.244	-76.326	752.914	623.613	-297.823	682.228	524.826	-80.866	756.173	566.301	-285.350	510.504	163.335	-107.734	716.418	162.525	-392.197	450.075	215.484	-135.706	715.542	157.492	-312.604	369.257	100.562	-138.883	817.577	47.017	-263.661
	67	0.65000	652.519	763.123	-235.994	642.317	758.005	-179.712	662.722	768.241	-292.276	636.974	400.770	-141.857	692.444	417.728	-277.597	373.710	184.130	-153.160	728.292	65.095	-263.322	688.123	834.304	-223.618	683.815	830.323	-112.981	692.431	838.285	-334.255	511.584	866.096	-197.000	514.091	864.625	-250.539	644.954	404.107	-82.663	720.264	415.805	-335.869	667.576	398.514	-209.981	712.426	422.021	-214.009	366.536	190.912	-116.982	721.076	63.303	-299.056	371.669	178.433	-186.198	722.318	66.270	-229.828	575.860	1264.461	-230.375	680.746	1186.366	-181.171	681.268	1187.517	-286.859	678.175	1186.907	-237.108	679.450	1084.791	-240.729	768.907	554.706	-102.168	789.560	578.062	-357.980	705.414	585.654	-78.143	759.442	622.913	-297.172	701.228	528.677	-82.795	762.054	565.757	-284.837	535.662	164.572	-109.763	716.292	162.602	-392.072	476.592	215.736	-136.210	715.677	157.568	-312.103	397.313	101.242	-139.429	817.449	46.952	-263.522
	68	0.65833	663.390	765.396	-236.182	653.295	760.528	-179.859	673.484	770.264	-292.506	658.038	402.998	-143.106	696.313	417.887	-277.542	398.850	182.493	-153.700	728.516	65.120	-263.346	699.101	836.502	-224.197	695.059	832.998	-113.685	703.144	840.006	-334.710	522.378	868.738	-196.870	525.084	867.052	-250.666	666.782	406.718	-83.745	723.267	416.016	-335.861	687.201	401.787	-211.424	716.593	421.672	-213.189	391.830	188.917	-117.428	720.966	63.391	-299.015	396.418	175.895	-186.602	722.317	66.031	-229.776	587.037	1266.685	-230.792	691.939	1188.797	-181.195	692.549	1189.732	-287.035	689.415	1189.221	-237.210	690.787	1087.100	-240.620	786.454	560.285	-104.952	795.549	576.922	-357.877	722.764	589.448	-79.651	765.816	621.957	-296.035	719.945	532.342	-84.434	767.756	565.135	-283.906	561.502	165.603	-111.632	716.220	162.664	-391.918	501.177	216.238	-138.457	715.688	157.726	-311.610	426.447	101.140	-140.214	817.327	46.881	-263.335
	69	0.66667	674.196	767.543	-236.200	664.226	762.989	-179.828	684.167	772.097	-292.572	678.397	405.326	-144.417	699.832	418.096	-277.516	424.739	179.782	-154.181	728.704	65.158	-263.338	710.026	838.619	-224.728	706.261	835.701	-114.343	713.790	841.536	-335.113	533.188	871.243	-196.753	536.000	869.382	-250.829	688.248	409.535	-84.905	726.100	416.168	-335.846	706.002	404.298	-211.415	720.406	421.453	-212.192	417.823	185.879	-117.832	720.892	63.492	-298.954	421.443	170.134	-186.386	722.454	66.044	-229.714	598.202	1268.765	-231.363	702.878	1190.879	-180.962	703.967	1191.844	-286.716	700.607	1191.319	-236.946	702.009	1089.198	-240.379	803.711	565.879	-107.673	801.431	575.780	-357.610	740.073	593.662	-81.328	772.173	621.023	-294.897	738.393	536.001	-85.797	773.360	564.408	-282.888	587.978	166.454	-113.314	716.299	162.703	-391.769	525.389	214.069	-140.841	715.969	157.838	-311.434	456.519	100.348	-141.176	817.223	46.796	-263.128
